# xmcd
#
# Track frame offsets: 
#        150
#        14479
#        75648
#        92824
#        127927
#        159405
#
# Disc length: 2610 seconds
#
# Revision: 3
# Processed by: cddbd v1.5.2PL0 Copyright (c) Steve Scherf et al.
# Submitted via: ExactAudioCopy v0.99pb4
#
DISCID=3c0a3006
DTITLE=10cc - Live And Let Live [CD2]
DYEAR=2008
DGENRE=Pop/Rock
TTITLE0=Good Morning Judge
TTITLE1=Feel The Benefit
TTITLE2=The Things We Do For Love
TTITLE3=Waterfall
TTITLE4=I'm Not In Love
TTITLE5=Modern Man Blues
EXTD=
EXTT0=
EXTT1=
EXTT2=
EXTT3=
EXTT4=
EXTT5=
PLAYORDER=
